<?xml version="1.0" encoding="UTF-8"?>
<!DOCTYPE svg PUBLIC "-//W3C//DTD SVG 1.1//EN" "http://www.w3.org/Graphics/SVG/1.1/DTD/svg11.dtd">
<svg xmlns="http://www.w3.org/2000/svg" style="background: transparent; background-color: transparent; color-scheme: light;" xmlns:xlink="http://www.w3.org/1999/xlink" version="1.1" width="977px" height="599px" viewBox="0 0 977 599"><defs/><g><g data-cell-id="qrs-0"><g data-cell-id="qrs-1"><g data-cell-id="qrs-rdb"><g transform="translate(0.5,0.5)"><path d="M 215 34 L 215 0 L 715 0 L 715 34" fill="#e1d5e7" stroke="#9673a6" stroke-miterlimit="10" pointer-events="all" style="fill: rgb(225, 213, 231); stroke: rgb(150, 115, 166);"/><path d="M 215 34 L 215 590 L 715 590 L 715 34" fill="none" stroke="#9673a6" stroke-miterlimit="10" pointer-events="none" style="stroke: rgb(150, 115, 166);"/><path d="M 215 34 L 715 34" fill="none" stroke="#9673a6" stroke-miterlimit="10" pointer-events="none" style="stroke: rgb(150, 115, 166);"/></g><g><g fill="#000000" font-family="Helvetica" font-weight="bold" text-anchor="middle" font-size="15px" style="fill: rgb(0, 0, 0);"><g transform="translate(465,23.5) scale(1)"><text><tspan>RetractorDB — xretractor / rec205-detect.rql</tspan></text></g></g></g><g data-cell-id="qrs-stage1"><g transform="translate(0.5,0.5)"><rect x="240" y="50" width="450" height="72" fill="#d5e8d4" stroke="#82b366" pointer-events="all" style="fill: rgb(213, 232, 212); stroke: rgb(130, 179, 102);"/></g></g><g data-cell-id="qrs-stage1-title"><g><rect x="430" y="67" width="250" height="24" fill="none" stroke="none" pointer-events="all"/></g><g><g fill="#000000" font-family="Helvetica" font-weight="bold" text-anchor="start" font-size="14px" style="fill: rgb(0, 0, 0);"><g transform="translate(432,85) scale(1)"><text><tspan>Band-pass filter 5–15 Hz</tspan></text></g></g></g></g><g data-cell-id="qrs-stage1-detail"><g><rect x="430" y="91" width="250" height="22" fill="none" stroke="none" pointer-events="all"/></g><g><g fill="#000000" font-family="Helvetica" text-anchor="start" font-size="12px" style="fill: rgb(0, 0, 0);"><g transform="translate(432,107) scale(1)"><text><tspan>@(1,25) · [_] · sumc / 1000</tspan></text></g></g></g></g><g data-cell-id="qrs-badge1"><g transform="translate(0.5,0.5)"><ellipse cx="270" cy="86" rx="15" ry="15" fill="#dae8fc" stroke="#6c8ebf" pointer-events="all" style="fill: rgb(218, 232, 252); stroke: rgb(108, 142, 191);"/></g><g><g fill="#000000" font-family="Helvetica" font-weight="bold" text-anchor="middle" font-size="16px" style="fill: rgb(0, 0, 0);"><g transform="translate(270,93) scale(1)"><text><tspan>1</tspan></text></g></g></g></g><g data-cell-id="qrs-wavebox1"><g transform="translate(0.5,0.5)"><rect x="298" y="63" width="112" height="46" fill="#ffffff" stroke="#82b366" pointer-events="all" style="fill: rgb(255, 255, 255); stroke: rgb(130, 179, 102);"/></g></g><g data-cell-id="qrs-wave1"><g><path d="M 305 88 L 310 87.5 Q 315 87 319 88.5 L 321 89.25 Q 323 90 327 88 L 329 87 Q 331 86 335 87 L 337 87.5 Q 339 88 343 86 L 345 85 Q 347 84 350 90.5 L 351.5 93.75 Q 353 97 355.17 87.24 L 357.08 78.62 Q 359 70 361.03 79.79 L 363.01 89.4 Q 365 99 368.5 92.5 L 370.25 89.25 Q 372 86 376.5 87 L 378.75 87.5 Q 381 88 386 87.5 L 388.5 87.25 Q 391 87 397 87.5 L 403 88" fill="none" stroke="#505050" stroke-width="2" stroke-miterlimit="10" pointer-events="stroke" style="stroke: rgb(80, 80, 80);"/></g></g><g data-cell-id="qrs-stage2-edge"><g><path d="M 465 122 L 465 142 L 465 122 L 465 133.76" fill="none" stroke="#000000" stroke-width="2" stroke-miterlimit="10" pointer-events="stroke" style="stroke: rgb(0, 0, 0);"/><path d="M 465 139.76 L 461 131.76 L 465 133.76 L 469 131.76 Z" fill="#000000" stroke="#000000" stroke-width="2" stroke-miterlimit="10" pointer-events="all" style="fill: rgb(0, 0, 0); stroke: rgb(0, 0, 0);"/></g></g><g data-cell-id="qrs-stage2"><g transform="translate(0.5,0.5)"><rect x="240" y="142" width="450" height="72" fill="#d5e8d4" stroke="#82b366" pointer-events="all" style="fill: rgb(213, 232, 212); stroke: rgb(130, 179, 102);"/></g></g><g data-cell-id="qrs-stage2-title"><g><rect x="430" y="159" width="250" height="24" fill="none" stroke="none" pointer-events="all"/></g><g><g fill="#000000" font-family="Helvetica" font-weight="bold" text-anchor="start" font-size="14px" style="fill: rgb(0, 0, 0);"><g transform="translate(432,177) scale(1)"><text><tspan>FIR differentiation</tspan></text></g></g></g></g><g data-cell-id="qrs-stage2-detail"><g><rect x="430" y="183" width="250" height="22" fill="none" stroke="none" pointer-events="all"/></g><g><g fill="#000000" font-family="Helvetica" text-anchor="start" font-size="12px" style="fill: rgb(0, 0, 0);"><g transform="translate(432,199) scale(1)"><text><tspan>@(1,5) · [_] · sumc</tspan></text></g></g></g></g><g data-cell-id="qrs-badge2"><g transform="translate(0.5,0.5)"><ellipse cx="270" cy="178" rx="15" ry="15" fill="#dae8fc" stroke="#6c8ebf" pointer-events="all" style="fill: rgb(218, 232, 252); stroke: rgb(108, 142, 191);"/></g><g><g fill="#000000" font-family="Helvetica" font-weight="bold" text-anchor="middle" font-size="16px" style="fill: rgb(0, 0, 0);"><g transform="translate(270,185) scale(1)"><text><tspan>2</tspan></text></g></g></g></g><g data-cell-id="qrs-wavebox2"><g transform="translate(0.5,0.5)"><rect x="298" y="155" width="112" height="46" fill="#ffffff" stroke="#82b366" pointer-events="all" style="fill: rgb(255, 255, 255); stroke: rgb(130, 179, 102);"/></g></g><g data-cell-id="qrs-wave2"><g><path d="M 305 180 L 317 180 Q 327 180 333 179 L 336 178.5 Q 339 178 344 172 L 346.5 169 Q 349 166 352.16 175.49 L 355.08 184.24 Q 358 193 360.5 183.32 L 363.5 171.68 Q 366 162 369.64 171.31 L 372.32 178.16 Q 375 185 380.5 182.5 L 383.25 181.25 Q 386 180 394.5 180 L 403 180" fill="none" stroke="#505050" stroke-width="2" stroke-miterlimit="10" pointer-events="stroke" style="stroke: rgb(80, 80, 80);"/></g></g><g data-cell-id="qrs-stage3-edge"><g><path d="M 465 214 L 465 234 L 465 214 L 465 225.76" fill="none" stroke="#000000" stroke-width="2" stroke-miterlimit="10" pointer-events="stroke" style="stroke: rgb(0, 0, 0);"/><path d="M 465 231.76 L 461 223.76 L 465 225.76 L 469 223.76 Z" fill="#000000" stroke="#000000" stroke-width="2" stroke-miterlimit="10" pointer-events="all" style="fill: rgb(0, 0, 0); stroke: rgb(0, 0, 0);"/></g></g><g data-cell-id="qrs-stage3"><g transform="translate(0.5,0.5)"><rect x="240" y="234" width="450" height="72" fill="#d5e8d4" stroke="#82b366" pointer-events="all" style="fill: rgb(213, 232, 212); stroke: rgb(130, 179, 102);"/></g></g><g data-cell-id="qrs-stage3-title"><g><rect x="430" y="251" width="250" height="24" fill="none" stroke="none" pointer-events="all"/></g><g><g fill="#000000" font-family="Helvetica" font-weight="bold" text-anchor="start" font-size="14px" style="fill: rgb(0, 0, 0);"><g transform="translate(432,269) scale(1)"><text><tspan>Squaring</tspan></text></g></g></g></g><g data-cell-id="qrs-stage3-detail"><g><rect x="430" y="275" width="250" height="22" fill="none" stroke="none" pointer-events="all"/></g><g><g fill="#000000" font-family="Helvetica" text-anchor="start" font-size="12px" style="fill: rgb(0, 0, 0);"><g transform="translate(432,291) scale(1)"><text><tspan>d_out × d_out / 1000</tspan></text></g></g></g></g><g data-cell-id="qrs-badge3"><g transform="translate(0.5,0.5)"><ellipse cx="270" cy="270" rx="15" ry="15" fill="#dae8fc" stroke="#6c8ebf" pointer-events="all" style="fill: rgb(218, 232, 252); stroke: rgb(108, 142, 191);"/></g><g><g fill="#000000" font-family="Helvetica" font-weight="bold" text-anchor="middle" font-size="16px" style="fill: rgb(0, 0, 0);"><g transform="translate(270,277) scale(1)"><text><tspan>3</tspan></text></g></g></g></g><g data-cell-id="qrs-wavebox3"><g transform="translate(0.5,0.5)"><rect x="298" y="247" width="112" height="46" fill="#ffffff" stroke="#82b366" pointer-events="all" style="fill: rgb(255, 255, 255); stroke: rgb(130, 179, 102);"/></g></g><g data-cell-id="qrs-wave3"><g><path d="M 305 282 L 317 282 Q 327 282 334 281.5 L 337.5 281.25 Q 341 281 345.5 277.5 L 347.75 275.75 Q 350 274 353.88 264.78 L 355.94 259.89 Q 358 255 360.91 264.57 L 362.96 271.28 Q 365 278 369.5 273 L 371.75 270.5 Q 374 268 378.5 274.5 L 380.75 277.75 Q 383 281 392.99 281.5 L 403 282" fill="none" stroke="#505050" stroke-width="2" stroke-miterlimit="10" pointer-events="stroke" style="stroke: rgb(80, 80, 80);"/></g></g><g data-cell-id="qrs-stage4-edge"><g><path d="M 465 306 L 465 326 L 465 306 L 465 317.76" fill="none" stroke="#000000" stroke-width="2" stroke-miterlimit="10" pointer-events="stroke" style="stroke: rgb(0, 0, 0);"/><path d="M 465 323.76 L 461 315.76 L 465 317.76 L 469 315.76 Z" fill="#000000" stroke="#000000" stroke-width="2" stroke-miterlimit="10" pointer-events="all" style="fill: rgb(0, 0, 0); stroke: rgb(0, 0, 0);"/></g></g><g data-cell-id="qrs-stage4"><g transform="translate(0.5,0.5)"><rect x="240" y="326" width="450" height="72" fill="#d5e8d4" stroke="#82b366" pointer-events="all" style="fill: rgb(213, 232, 212); stroke: rgb(130, 179, 102);"/></g></g><g data-cell-id="qrs-stage4-title"><g><rect x="430" y="343" width="250" height="24" fill="none" stroke="none" pointer-events="all"/></g><g><g fill="#000000" font-family="Helvetica" font-weight="bold" text-anchor="start" font-size="14px" style="fill: rgb(0, 0, 0);"><g transform="translate(432,361) scale(1)"><text><tspan>Moving-window integration</tspan></text></g></g></g></g><g data-cell-id="qrs-stage4-detail"><g><rect x="430" y="367" width="250" height="22" fill="none" stroke="none" pointer-events="all"/></g><g><g fill="#000000" font-family="Helvetica" text-anchor="start" font-size="12px" style="fill: rgb(0, 0, 0);"><g transform="translate(432,383) scale(1)"><text><tspan>@(1,30) · avg · about 83 ms</tspan></text></g></g></g></g><g data-cell-id="qrs-badge4"><g transform="translate(0.5,0.5)"><ellipse cx="270" cy="362" rx="15" ry="15" fill="#dae8fc" stroke="#6c8ebf" pointer-events="all" style="fill: rgb(218, 232, 252); stroke: rgb(108, 142, 191);"/></g><g><g fill="#000000" font-family="Helvetica" font-weight="bold" text-anchor="middle" font-size="16px" style="fill: rgb(0, 0, 0);"><g transform="translate(270,369) scale(1)"><text><tspan>4</tspan></text></g></g></g></g><g data-cell-id="qrs-wavebox4"><g transform="translate(0.5,0.5)"><rect x="298" y="339" width="112" height="46" fill="#ffffff" stroke="#82b366" pointer-events="all" style="fill: rgb(255, 255, 255); stroke: rgb(130, 179, 102);"/></g></g><g data-cell-id="qrs-wave4"><g><path d="M 305 374 L 314.5 374 Q 324 374 329.5 372.5 L 332.25 371.75 Q 335 371 340 366 L 342.5 363.5 Q 345 361 349.5 354.5 L 351.75 351.25 Q 354 348 358.5 349.5 L 360.75 350.25 Q 363 351 368 358 L 370.5 361.5 Q 373 365 378.5 368.5 L 381.25 370.25 Q 384 372 393.5 373 L 403 374" fill="none" stroke="#505050" stroke-width="2" stroke-miterlimit="10" pointer-events="stroke" style="stroke: rgb(80, 80, 80);"/></g></g><g data-cell-id="qrs-stage5-edge"><g><path d="M 465 398 L 465 418 L 465 398 L 465 409.76" fill="none" stroke="#000000" stroke-width="2" stroke-miterlimit="10" pointer-events="stroke" style="stroke: rgb(0, 0, 0);"/><path d="M 465 415.76 L 461 407.76 L 465 409.76 L 469 407.76 Z" fill="#000000" stroke="#000000" stroke-width="2" stroke-miterlimit="10" pointer-events="all" style="fill: rgb(0, 0, 0); stroke: rgb(0, 0, 0);"/></g></g><g data-cell-id="qrs-stage5"><g transform="translate(0.5,0.5)"><rect x="240" y="418" width="450" height="72" fill="#d5e8d4" stroke="#82b366" pointer-events="all" style="fill: rgb(213, 232, 212); stroke: rgb(130, 179, 102);"/></g></g><g data-cell-id="qrs-stage5-title"><g><rect x="430" y="435" width="250" height="24" fill="none" stroke="none" pointer-events="all"/></g><g><g fill="#000000" font-family="Helvetica" font-weight="bold" text-anchor="start" font-size="14px" style="fill: rgb(0, 0, 0);"><g transform="translate(432,453) scale(1)"><text><tspan>Adaptive threshold</tspan></text></g></g></g></g><g data-cell-id="qrs-stage5-detail"><g><rect x="430" y="459" width="250" height="22" fill="none" stroke="none" pointer-events="all"/></g><g><g fill="#000000" font-family="Helvetica" text-anchor="start" font-size="12px" style="fill: rgb(0, 0, 0);"><g transform="translate(432,475) scale(1)"><text><tspan>@(1,180) · avg · mwi − 2·mwi_thr</tspan></text></g></g></g></g><g data-cell-id="qrs-badge5"><g transform="translate(0.5,0.5)"><ellipse cx="270" cy="454" rx="15" ry="15" fill="#dae8fc" stroke="#6c8ebf" pointer-events="all" style="fill: rgb(218, 232, 252); stroke: rgb(108, 142, 191);"/></g><g><g fill="#000000" font-family="Helvetica" font-weight="bold" text-anchor="middle" font-size="16px" style="fill: rgb(0, 0, 0);"><g transform="translate(270,461) scale(1)"><text><tspan>5</tspan></text></g></g></g></g><g data-cell-id="qrs-wavebox5"><g transform="translate(0.5,0.5)"><rect x="298" y="431" width="112" height="46" fill="#ffffff" stroke="#82b366" pointer-events="all" style="fill: rgb(255, 255, 255); stroke: rgb(130, 179, 102);"/></g></g><g data-cell-id="qrs-wave5"><g><path d="M 305 466 L 314.5 466 Q 324 466 329.5 464.5 L 332.25 463.75 Q 335 463 340 458 L 342.5 455.5 Q 345 453 349.5 446.5 L 351.75 443.25 Q 354 440 358.5 441.5 L 360.75 442.25 Q 363 443 368 450 L 370.5 453.5 Q 373 457 378.5 460.5 L 381.25 462.25 Q 384 464 393.5 465 L 403 466" fill="none" stroke="#505050" stroke-width="2" stroke-miterlimit="10" pointer-events="stroke" style="stroke: rgb(80, 80, 80);"/></g></g><g data-cell-id="qrs-threshold"><g transform="translate(0.5,0.5)"><path d="M 306 451 L 402 451" fill="none" stroke="#b85450" stroke-miterlimit="10" stroke-dasharray="3 3" pointer-events="stroke" style="stroke: rgb(184, 84, 80);"/></g></g><g data-cell-id="qrs-output-edge"><g><path d="M 465 490 L 465 510 L 465 492 L 465 503.76" fill="none" stroke="#000000" stroke-width="2" stroke-miterlimit="10" pointer-events="stroke" style="stroke: rgb(0, 0, 0);"/><path d="M 465 509.76 L 461 501.76 L 465 503.76 L 469 501.76 Z" fill="#000000" stroke="#000000" stroke-width="2" stroke-miterlimit="10" pointer-events="all" style="fill: rgb(0, 0, 0); stroke: rgb(0, 0, 0);"/></g></g><g data-cell-id="qrs-output"><g transform="translate(0.5,0.5)"><rect x="300" y="512" width="330" height="58" rx="8.7" ry="8.7" fill="#f8cecc" stroke="#b85450" pointer-events="all" style="fill: rgb(248, 206, 204); stroke: rgb(184, 84, 80);"/></g><g><g fill="#000000" font-family="Helvetica" font-weight="bold" text-anchor="middle" data-blockTextHeight="28.799999999999997" font-size="12px" style="fill: rgb(0, 0, 0);"><g transform="translate(465,526.6) scale(1)"><text y="12" data-line-font-size="12" x="0"><tspan>detect_out (VOLATILE)</tspan></text><text y="26.4" data-line-font-size="12" x="0"><tspan>MLII · V1 · QRS detection signal</tspan></text></g></g></g></g></g><g data-cell-id="qrs-mit"><g transform="translate(0.5,0.5)"><path d="M 0 25 L 165 25 L 165 94.7 Q 123.75 72.56 82.5 94.7 Q 41.25 116.84 0 94.7 L 0 37.3 Z" fill="#f5f5f5" stroke="#666666" stroke-miterlimit="10" pointer-events="all" style="fill: rgb(245, 245, 245); stroke: rgb(102, 102, 102);"/></g><g><g fill="#333333" font-family="Helvetica" text-anchor="middle" data-blockTextHeight="46.800000000000004" font-size="13px" style="fill: rgb(51, 51, 51);"><g transform="translate(82.5,30.1) scale(1)"><text y="13" data-line-font-size="13" x="0"><tspan>MIT-BIH 205</tspan></text><text y="28.6" data-line-font-size="13" x="0"><tspan>205.dat · 205.hea</tspan></text><text y="44.2" data-line-font-size="13" x="0"><tspan>MLII · V1 · 360 Hz</tspan></text></g></g></g></g><g data-cell-id="qrs-convert"><g transform="translate(0.5,0.5)"><rect x="10" y="135" width="145" height="60" fill="#fff2cc" stroke="#d6b656" pointer-events="all" style="fill: rgb(255, 242, 204); stroke: rgb(214, 182, 86);"/><path d="M 25 135 L 25 195 M 140 135 L 140 195" fill="none" stroke="#d6b656" stroke-miterlimit="10" pointer-events="all" style="stroke: rgb(214, 182, 86);"/></g><g><g fill="#000000" font-family="Helvetica" text-anchor="middle" data-blockTextHeight="28.799999999999997" font-size="12px" style="fill: rgb(0, 0, 0);"><g transform="translate(83,150.6) scale(1)"><text y="12" data-line-font-size="12" x="0"><tspan>mitbih2rdb.py</tspan></text><text y="26.4" data-line-font-size="12" x="0"><tspan>rec205 · int32 LE</tspan></text></g></g></g></g><g data-cell-id="qrs-bp"><g transform="translate(0.5,0.5)"><path d="M 0 245 L 165 245 L 165 314.7 Q 123.75 292.56 82.5 314.7 Q 41.25 336.84 0 314.7 L 0 257.3 Z" fill="#f5f5f5" stroke="#666666" stroke-miterlimit="10" pointer-events="all" style="fill: rgb(245, 245, 245); stroke: rgb(102, 102, 102);"/></g><g><g fill="#333333" font-family="Helvetica" text-anchor="middle" data-blockTextHeight="43.199999999999996" font-size="12px" style="fill: rgb(51, 51, 51);"><g transform="translate(82.5,251.9) scale(1)"><text y="12" data-line-font-size="12" x="0"><tspan>bp_coef.txt</tspan></text><text y="26.4" data-line-font-size="12" x="0"><tspan>25 coefficients</tspan></text><text y="40.8" data-line-font-size="12" x="0"><tspan>gen_bp_coef.py</tspan></text></g></g></g></g><g data-cell-id="qrs-d"><g transform="translate(0.5,0.5)"><path d="M 0 360 L 165 360 L 165 429.7 Q 123.75 407.56 82.5 429.7 Q 41.25 451.84 0 429.7 L 0 372.3 Z" fill="#f5f5f5" stroke="#666666" stroke-miterlimit="10" pointer-events="all" style="fill: rgb(245, 245, 245); stroke: rgb(102, 102, 102);"/></g><g><g fill="#333333" font-family="Helvetica" text-anchor="middle" data-blockTextHeight="43.199999999999996" font-size="12px" style="fill: rgb(51, 51, 51);"><g transform="translate(82.5,366.9) scale(1)"><text y="12" data-line-font-size="12" x="0"><tspan>d_coef.txt</tspan></text><text y="26.4" data-line-font-size="12" x="0"><tspan>[−1, −2, 0, 2, 1]</tspan></text><text y="40.8" data-line-font-size="12" x="0"><tspan>gen_d_coef.py</tspan></text></g></g></g></g><g data-cell-id="qrs-mit-convert"><g transform="translate(0.5,0.5)"><path d="M 82.5 107 L 82.5 127 L 82.5 115 L 82.5 124.9" fill="none" stroke="#000000" stroke-width="3" stroke-miterlimit="10" pointer-events="stroke" style="stroke: rgb(0, 0, 0);"/><path d="M 82.5 131.65 L 78 122.65 L 82.5 124.9 L 87 122.65 Z" fill="#000000" stroke="#000000" stroke-width="3" stroke-miterlimit="10" pointer-events="all" style="fill: rgb(0, 0, 0); stroke: rgb(0, 0, 0);"/></g></g><g data-cell-id="qrs-convert-stage1"><g transform="translate(0.5,0.5)"><path d="M 155 165 L 190 165 L 190 86 L 229.9 86" fill="none" stroke="#000000" stroke-width="3" stroke-miterlimit="10" pointer-events="stroke" style="stroke: rgb(0, 0, 0);"/><path d="M 236.65 86 L 227.65 90.5 L 229.9 86 L 227.65 81.5 Z" fill="#000000" stroke="#000000" stroke-width="3" stroke-miterlimit="10" pointer-events="all" style="fill: rgb(0, 0, 0); stroke: rgb(0, 0, 0);"/></g></g><g data-cell-id="qrs-bp-stage1"><g transform="translate(0.5,0.5)"><path d="M 165 286 L 185 286 L 185 107.6 L 233.63 107.6" fill="none" stroke="#000000" stroke-miterlimit="10" stroke-dasharray="3 3" pointer-events="stroke" style="stroke: rgb(0, 0, 0);"/><path d="M 238.88 107.6 L 231.88 111.1 L 233.63 107.6 L 231.88 104.1 Z" fill="#000000" stroke="#000000" stroke-miterlimit="10" pointer-events="all" style="fill: rgb(0, 0, 0); stroke: rgb(0, 0, 0);"/></g></g><g data-cell-id="qrs-d-stage2"><g transform="translate(0.5,0.5)"><path d="M 165 401 L 195 401 L 195 178 L 233.63 178" fill="none" stroke="#000000" stroke-miterlimit="10" stroke-dasharray="3 3" pointer-events="stroke" style="stroke: rgb(0, 0, 0);"/><path d="M 238.88 178 L 231.88 181.5 L 233.63 178 L 231.88 174.5 Z" fill="#000000" stroke="#000000" stroke-miterlimit="10" pointer-events="all" style="fill: rgb(0, 0, 0); stroke: rgb(0, 0, 0);"/></g></g><g data-cell-id="qrs-future"><g transform="translate(0.5,0.5)"><path d="M 960 57 L 960 39.4 Q 960 25 945.6 25 L 769.4 25 Q 755 25 755 39.4 L 755 57" fill="#f5f5f5" stroke="#666666" stroke-miterlimit="10" stroke-dasharray="3 3" pointer-events="all" style="fill: rgb(245, 245, 245); stroke: rgb(102, 102, 102);"/><path d="M 755 57 L 755 325.6 Q 755 340 769.4 340 L 945.6 340 Q 960 340 960 325.6 L 960 57" fill="none" stroke="#666666" stroke-miterlimit="10" stroke-dasharray="3 3" pointer-events="none" style="stroke: rgb(102, 102, 102);"/><path d="M 755 57 L 960 57" fill="none" stroke="#666666" stroke-miterlimit="10" stroke-dasharray="3 3" pointer-events="none" style="stroke: rgb(102, 102, 102);"/></g><g><g fill="#000000" font-family="Helvetica" font-weight="bold" text-anchor="middle" font-size="13px" style="fill: rgb(0, 0, 0);"><g transform="translate(857.5,46.5) scale(1)"><text><tspan>Possible extension</tspan></text></g></g></g><g data-cell-id="qrs-events"><g transform="translate(0.5,0.5)"><rect x="775" y="73" width="165" height="62" fill="#dae8fc" stroke="#6c8ebf" pointer-events="all" style="fill: rgb(218, 232, 252); stroke: rgb(108, 142, 191);"/><path d="M 792 73 L 792 135 M 923 73 L 923 135" fill="none" stroke="#6c8ebf" stroke-miterlimit="10" pointer-events="all" style="stroke: rgb(108, 142, 191);"/></g><g><g fill="#000000" font-family="Helvetica" text-anchor="middle" data-blockTextHeight="28.799999999999997" font-size="12px" style="fill: rgb(0, 0, 0);"><g transform="translate(858,89.6) scale(1)"><text y="12" data-line-font-size="12" x="0"><tspan>QRS events</tspan></text><text y="26.4" data-line-font-size="12" x="0"><tspan>peak positions</tspan></text></g></g></g></g><g data-cell-id="qrs-features-edge"><g transform="translate(0.5,0.5)"><path d="M 857.5 135 L 857.5 155 L 857.5 138 L 857.5 151.63" fill="none" stroke="#000000" stroke-miterlimit="10" pointer-events="stroke" style="stroke: rgb(0, 0, 0);"/><path d="M 857.5 156.88 L 854 149.88 L 857.5 151.63 L 861 149.88 Z" fill="#000000" stroke="#000000" stroke-miterlimit="10" pointer-events="all" style="fill: rgb(0, 0, 0); stroke: rgb(0, 0, 0);"/></g></g><g data-cell-id="qrs-features"><g transform="translate(0.5,0.5)"><rect x="775" y="158" width="165" height="62" fill="#dae8fc" stroke="#6c8ebf" pointer-events="all" style="fill: rgb(218, 232, 252); stroke: rgb(108, 142, 191);"/><path d="M 792 158 L 792 220 M 923 158 L 923 220" fill="none" stroke="#6c8ebf" stroke-miterlimit="10" pointer-events="all" style="stroke: rgb(108, 142, 191);"/></g><g><g fill="#000000" font-family="Helvetica" text-anchor="middle" data-blockTextHeight="28.799999999999997" font-size="12px" style="fill: rgb(0, 0, 0);"><g transform="translate(858,174.6) scale(1)"><text y="12" data-line-font-size="12" x="0"><tspan>Rhythm features</tspan></text><text y="26.4" data-line-font-size="12" x="0"><tspan>RR · HRV · morphology</tspan></text></g></g></g></g><g data-cell-id="qrs-arr-edge"><g transform="translate(0.5,0.5)"><path d="M 857.5 220 L 857.5 240 L 857.5 223 L 857.5 236.63" fill="none" stroke="#000000" stroke-miterlimit="10" pointer-events="stroke" style="stroke: rgb(0, 0, 0);"/><path d="M 857.5 241.88 L 854 234.88 L 857.5 236.63 L 861 234.88 Z" fill="#000000" stroke="#000000" stroke-miterlimit="10" pointer-events="all" style="fill: rgb(0, 0, 0); stroke: rgb(0, 0, 0);"/></g></g><g data-cell-id="qrs-arr"><g transform="translate(0.5,0.5)"><rect x="775" y="243" width="165" height="70" fill="#fff2cc" stroke="#d6b656" pointer-events="all" style="fill: rgb(255, 242, 204); stroke: rgb(214, 182, 86);"/><path d="M 792 243 L 792 313 M 923 243 L 923 313" fill="none" stroke="#d6b656" stroke-miterlimit="10" pointer-events="all" style="stroke: rgb(214, 182, 86);"/></g><g><g fill="#000000" font-family="Helvetica" text-anchor="middle" data-blockTextHeight="28.799999999999997" font-size="12px" style="fill: rgb(0, 0, 0);"><g transform="translate(858,263.6) scale(1)"><text y="12" data-line-font-size="12" x="0"><tspan>Arrhythmia identification</tspan></text><text y="26.4" data-line-font-size="12" x="0"><tspan>HR · PVC · VT · APC</tspan></text></g></g></g></g></g><g data-cell-id="qrs-output-future"><g transform="translate(0.5,0.5)"><path d="M 630 541 L 735 541 L 735 104 L 768.63 104" fill="none" stroke="#000000" stroke-miterlimit="10" stroke-dasharray="3 3" pointer-events="stroke" style="stroke: rgb(0, 0, 0);"/><path d="M 773.88 104 L 766.88 107.5 L 768.63 104 L 766.88 100.5 Z" fill="#000000" stroke="#000000" stroke-miterlimit="10" pointer-events="all" style="fill: rgb(0, 0, 0); stroke: rgb(0, 0, 0);"/></g></g><g data-cell-id="qrs-xqry"><g transform="translate(0.5,0.5)"><rect x="760" y="425" width="125" height="62" fill="#dae8fc" stroke="#6c8ebf" pointer-events="all" style="fill: rgb(218, 232, 252); stroke: rgb(108, 142, 191);"/><path d="M 773 425 L 773 487 M 872 425 L 872 487" fill="none" stroke="#6c8ebf" stroke-miterlimit="10" pointer-events="all" style="stroke: rgb(108, 142, 191);"/></g><g><g fill="#000000" font-family="Helvetica" text-anchor="middle" data-blockTextHeight="31.200000000000003" font-size="13px" style="fill: rgb(0, 0, 0);"><g transform="translate(823,440.4) scale(1)"><text y="13" data-line-font-size="13" x="0"><tspan>xqry</tspan></text><text y="28.6" data-line-font-size="13" x="0"><tspan>detect_out</tspan></text></g></g></g></g><g data-cell-id="qrs-plot"><g transform="translate(0.5,0.5)"><rect x="905" y="432" width="65" height="48" fill="none" stroke="none" pointer-events="all"/><path d="M 953.53 437.34 L 956.27 437.34 L 956.27 434.69 L 953.53 434.69 Z M 959.01 437.34 L 961.76 437.34 L 961.76 434.69 L 959.01 434.69 Z M 964.51 437.34 L 967.25 437.34 L 967.25 434.69 L 964.51 434.69 Z M 966.31 477.32 C 967.01 477.32 967.25 476.87 967.25 476.41 L 967.25 440.9 L 907.75 440.9 L 907.75 476.35 C 907.76 476.86 907.94 477.25 908.64 477.32 Z M 905 476.46 L 905 435.38 C 905 433.9 906.34 432 908.85 432 L 966.26 432 C 968.39 432 970 433.65 970 435.5 L 970 476.34 C 970 478.12 968.67 480 966.26 480 L 908.55 479.99 C 906.65 479.99 905 478.35 905 476.46 Z" fill="#dae8fc" stroke="#6c8ebf" stroke-miterlimit="10" pointer-events="all" style="fill: rgb(218, 232, 252); stroke: rgb(108, 142, 191);"/></g><g><g fill="#000000" font-family="Helvetica" text-anchor="middle" font-size="12px" style="fill: rgb(0, 0, 0);"><text x="937.5" y="498">gnuplot RTL</text></g></g></g><g data-cell-id="qrs-output-xqry"><g transform="translate(0.5,0.5)"><path d="M 630 541 L 735 541 L 735 456 L 749.9 456" fill="none" stroke="#000000" stroke-width="3" stroke-miterlimit="10" pointer-events="stroke" style="stroke: rgb(0, 0, 0);"/><path d="M 756.65 456 L 747.65 460.5 L 749.9 456 L 747.65 451.5 Z" fill="#000000" stroke="#000000" stroke-width="3" stroke-miterlimit="10" pointer-events="all" style="fill: rgb(0, 0, 0); stroke: rgb(0, 0, 0);"/></g></g><g data-cell-id="qrs-xqry-plot"><g transform="translate(0.5,0.5)"><path d="M 885 456 L 905 456 L 885 456 L 894.9 456" fill="none" stroke="#000000" stroke-width="3" stroke-miterlimit="10" pointer-events="stroke" style="stroke: rgb(0, 0, 0);"/><path d="M 901.65 456 L 892.65 460.5 L 894.9 456 L 892.65 451.5 Z" fill="#000000" stroke="#000000" stroke-width="3" stroke-miterlimit="10" pointer-events="all" style="fill: rgb(0, 0, 0); stroke: rgb(0, 0, 0);"/></g></g><g data-cell-id="qrs-legend-solid"><g transform="translate(0.5,0.5)"><path d="M 760 555 L 809.9 555" fill="none" stroke="#000000" stroke-width="3" stroke-miterlimit="10" pointer-events="stroke" style="stroke: rgb(0, 0, 0);"/><path d="M 816.65 555 L 807.65 559.5 L 809.9 555 L 807.65 550.5 Z" fill="#000000" stroke="#000000" stroke-width="3" stroke-miterlimit="10" pointer-events="all" style="fill: rgb(0, 0, 0); stroke: rgb(0, 0, 0);"/></g></g><g data-cell-id="qrs-legend-solid-label"><g><rect x="830" y="543" width="135" height="24" fill="none" stroke="none" pointer-events="all"/></g><g><g fill="#000000" font-family="Helvetica" text-anchor="start" font-size="11px" style="fill: rgb(0, 0, 0);"><g transform="translate(832,559.5) scale(1)"><text><tspan>executed data flow</tspan></text></g></g></g></g><g data-cell-id="qrs-legend-dashed"><g transform="translate(0.5,0.5)"><path d="M 760 585 L 813.63 585" fill="none" stroke="#000000" stroke-miterlimit="10" stroke-dasharray="3 3" pointer-events="stroke" style="stroke: rgb(0, 0, 0);"/><path d="M 818.88 585 L 811.88 588.5 L 813.63 585 L 811.88 581.5 Z" fill="#000000" stroke="#000000" stroke-miterlimit="10" pointer-events="all" style="fill: rgb(0, 0, 0); stroke: rgb(0, 0, 0);"/></g></g><g data-cell-id="qrs-legend-dashed-label"><g><rect x="830" y="573" width="145" height="24" fill="none" stroke="none" pointer-events="all"/></g><g><g fill="#000000" font-family="Helvetica" text-anchor="start" font-size="11px" style="fill: rgb(0, 0, 0);"><g transform="translate(832,589.5) scale(1)"><text><tspan>auxiliary data / extension</tspan></text></g></g></g></g></g></g></g></svg>